#!OML:ASF I:\Actors\actors\Patient Classification 1\Patient 1\Session 1\Subject1.ASF
:FULLY-SPECIFIED
:DEGREES
536
root -0.666678 17.1575 7.5238 65.5652 -14.948 -7.44573
lowerback 24.8153 2.85882 6.7278
upperback 9.76683 5.09243 6.19275
thorax -2.92839 2.31775 1.56192
lowerneck -13.2058 -4.38061 4.84394
upperneck -7.80648 -6.72635 1.46039
head -0.389757 -3.62865 -0.563322
rclavicle 3.33958e-014 5.41688e-014
rhumerus 50.2902 6.6943 -22.5614
rradius 54.7386
rwrist -33.3199
rhand 27.6976 -50.425
rfingers 7.12502
rthumb 51.6255 -70.7504
lclavicle 3.33958e-014 5.41688e-014
lhumerus 64.6649 -17.4134 20.6123
lradius 60.2418
lwrist 77.8071
lhand -25.8529 13.9279
lfingers 7.12502
lthumb 0.687831 43.9065
rfemur -66.1254 8.65756 19.1743
rtibia -4.31724
rfoot 4.23835 0.112345
rtoes 16.5159
lfemur -89.8487 26.1785 -71.6319
ltibia 4.94581
lfoot 14.8535 -34.5097
ltoes 28.4418
537
root -0.664263 17.158 7.51317 65.5466 -14.9432 -7.41697
lowerback 24.8212 2.88099 6.65564
upperback 9.75478 5.10848 6.20835
thorax -2.95332 2.3236 1.61393
lowerneck -13.2088 -4.39068 4.80974
upperneck -7.70578 -6.73455 1.48229
head -0.355768 -3.62807 -0.553551
rclavicle -5.24792e-014 7.25564e-015
rhumerus 50.334 6.65475 -22.4763
rradius 54.6973
rwrist -33.3185
rhand 27.7519 -50.4084
rfingers 7.12502
rthumb 51.6749 -70.7052
lclavicle -5.24792e-014 7.25564e-015
lhumerus 64.9401 -17.2573 20.6544
lradius 59.9653
lwrist 77.5953
lhand -25.9743 13.8561
lfingers 7.12502
lthumb 0.570561 43.835
rfemur -66.1354 8.52788 19.3733
rtibia -4.28924
rfoot 4.27057 0.339308
rtoes 16.4723
lfemur -89.7777 26.1476 -71.5536
ltibia 4.9082
lfoot 14.6746 -34.5428
ltoes 28.0237
538
root -0.661665 17.1585 7.50194 65.533 -14.8935 -7.3978
lowerback 24.7998 2.87965 6.65788
upperback 9.76176 5.10476 6.20255
thorax -2.93444 2.32286 1.60854
lowerneck -13.1989 -4.38309 4.72642
upperneck -7.62305 -6.70725 1.6238
head -0.323352 -3.60761 -0.496841
rclavicle 4.77083e-014 6.82825e-014
rhumerus 50.5049 6.47718 -22.5168
rradius 54.5586
rwrist -33.2857
rhand 27.6671 -50.4393
rfingers 7.12502
rthumb 51.5978 -70.7809
lclavicle 4.77083e-014 6.82825e-014
lhumerus 65.2541 -16.9669 20.8464
lradius 59.6431
lwrist 77.3182
lhand -26.1915 13.9455
lfingers 7.12502
lthumb 0.360783 43.9249
rfemur -66.1344 8.39123 19.6186
rtibia -4.28749
rfoot 4.29319 0.535028
rtoes 16.5812
lfemur -89.7065 26.1086 -71.4272
ltibia 4.87809
lfoot 14.4667 -34.5663
ltoes 27.6693
539
root -0.65929 17.1584 7.49099 65.5128 -14.8717 -7.3615
lowerback 24.7293 2.88065 6.67181
upperback 9.78211 5.09882 6.17117
thorax -2.87324 2.32327 1.5722
lowerneck -13.1141 -4.40121 4.73544
upperneck -7.65779 -6.7242 1.70913
head -0.345513 -3.61682 -0.46901
rclavicle 3.57812e-014 8.61732e-014
rhumerus 50.6973 6.13883 -22.6913
rradius 54.4431
rwrist -33.3092
rhand 27.5908 -50.3137
rfingers 7.12502
rthumb 51.5285 -70.6953
lclavicle 3.57812e-014 8.61732e-014
lhumerus 65.6354 -16.5706 21.1719
lradius 59.3092
lwrist 77.1044
lhand -26.4424 14.012
lfingers 7.12502
lthumb 0.118458 43.9917
rfemur -66.1281 8.25543 19.8323
rtibia -4.3196
rfoot 4.34368 0.748672
rtoes 16.3258
lfemur -89.6395 26.0575 -71.3337
ltibia 4.85595
lfoot 14.4847 -34.4844
ltoes 27.775
540
root -0.65591 17.1576 7.47997 65.486 -14.8573 -7.33681
lowerback 24.1607 3.03326 6.50368
upperback 10.1506 5.16534 6.35432
thorax -2.22136 2.36486 1.88737
lowerneck -13.2876 -4.43182 4.83197
upperneck -7.9286 -6.79897 1.52586
head -0.414423 -3.67003 -0.54292
rclavicle -2.14687e-014 1.799e-014
rhumerus 51.0639 5.23042 -22.679
rradius 54.3968
rwrist -33.3399
rhand 28.3424 -50.3353
rfingers 7.12502
rthumb 52.2107 -70.315
lclavicle -2.14687e-014 1.799e-014
lhumerus 66.3318 -15.7283 22.0046
lradius 58.8584
lwrist 76.8667
lhand -26.4752 13.9737
lfingers 7.12502
lthumb 0.0868086 43.9535
rfemur -66.1085 8.12876 20.0438
rtibia -4.35708
rfoot 4.42433 0.973725
rtoes 16.2057
lfemur -89.6021 26.0115 -71.2466
ltibia 4.85781
lfoot 14.6549 -34.3371
ltoes 28.1697
541
root -0.654265 17.1587 7.47624 65.6241 -15.3338 -7.13633
lowerback 24.5433 3.04498 6.08601
upperback 9.74229 5.16658 6.078
thorax -2.87694 2.35119 1.78534
lowerneck -13.1737 -4.4501 4.81614
upperneck -7.63353 -6.80994 1.57485
head -0.337071 -3.66304 -0.528674
rclavicle 3.02153e-014 1.0138e-014
rhumerus 51.2094 5.16144 -23.2985
rradius 54.2854
rwrist -33.192
rhand 29.8978 -50.6019
rfingers 7.12502
rthumb 53.6151 -69.6969
lclavicle 3.02153e-014 1.0138e-014
lhumerus 66.5532 -15.6317 22.4964
lradius 58.502
lwrist 76.6969
lhand -26.3789 13.9936
lfingers 7.12502
lthumb 0.179795 43.9733
rfemur -66.4033 7.93619 19.6539
rtibia -4.28913
rfoot 4.51153 1.17468
rtoes 16.6088
lfemur -89.3449 25.847 -71.7482
ltibia 4.43201
lfoot 14.0253 -34.4324
ltoes 26.7115
542
root -0.655621 17.1624 7.47941 65.8978 -16.3858 -6.66543
lowerback 23.5448 3.3427 4.87302
upperback 10.0977 5.16704 5.87404
thorax -2.09874 2.35504 2.2997
lowerneck -13.3978 -4.46126 4.83622
upperneck -7.99784 -6.84651 1.55529
head -0.419137 -3.69704 -0.537699
rclavicle -1.51076e-014 -1.0138e-014
rhumerus 51.7977 4.03265 -23.546
rradius 54.094
rwrist -32.971
rhand 30.6423 -50.874
rfingers 7.12502
rthumb 54.2835 -69.5185
lclavicle -1.51076e-014 -1.0138e-014
lhumerus 67.3696 -14.6133 23.328
lradius 58.0979
lwrist 76.3813
lhand -26.4962 13.787
lfingers 7.12502
lthumb 0.0665011 43.7668
rfemur -67.0479 7.60161 18.5403
rtibia -4.08071
rfoot 4.58363 1.40361
rtoes 16.9101
lfemur -88.7753 25.5466 -72.9296
ltibia 3.5338
lfoot 12.5997 -34.7691
ltoes 23.1483
543
root -0.655453 17.1635 7.47697 66.0013 -16.9284 -6.3655
lowerback 23.671 3.42734 4.23151
upperback 9.8465 5.17671 5.69673
thorax -2.4837 2.34884 2.44745
lowerneck -13.3249 -4.49719 4.82351
upperneck -7.87894 -6.88503 1.63191
head -0.3907 -3.71095 -0.513463
rclavicle 2.06736e-014 1.5207e-014
rhumerus 52.1158 3.68511 -24.0646
rradius 53.9239
rwrist -32.7091
rhand 30.5754 -51.0887
rfingers 7.12502
rthumb 54.2235 -69.7744
lclavicle 2.06736e-014 1.5207e-014
lhumerus 67.7571 -14.2991 23.9621
lradius 57.7906
lwrist 76.1745
lhand -26.6821 13.5104
lfingers 7.12502
lthumb -0.113058 43.4901
rfemur -67.3662 7.31325 18.0413
rtibia -3.97062
rfoot 4.62528 1.63805
rtoes 16.996
lfemur -88.4024 25.3727 -73.4998
ltibia 3.0543
lfoot 11.8411 -34.923
ltoes 21.2347
544
root -0.65294 17.159 7.46219 65.9108 -16.4007 -6.62994
lowerback 23.7856 3.41451 4.74482
upperback 9.84349 5.27738 5.86411
thorax -2.51 2.40037 2.31105
lowerneck -13.3156 -4.54559 4.97691
upperneck -7.83925 -6.97252 1.5816
head -0.388167 -3.75867 -0.557215
rclavicle 2.38542e-014 -1.83876e-014
rhumerus 52.5314 3.07574 -24.5386
rradius 53.6556
rwrist -32.4409
rhand 30.5822 -51.1445
rfingers 7.12502
rthumb 54.2296 -69.8261
lclavicle 2.38542e-014 -1.83876e-014
lhumerus 68.3923 -13.8305 24.5979
lradius 57.3831
lwrist 75.9205
lhand -26.5635 13.6912
lfingers 7.12502
lthumb 0.00146218 43.671
rfemur -67.0958 7.36882 18.9177
rtibia -4.0888
rfoot 4.66951 1.84923
rtoes 16.9815
lfemur -88.6578 25.488 -72.8068
ltibia 3.42659
lfoot 12.3212 -34.7417
ltoes 22.5385
545
root -0.647052 17.1497 7.4358 65.6243 -14.8591 -7.43069
lowerback 23.8234 3.29922 6.36665
upperback 10.1467 5.4398 6.35811
thorax -2.0738 2.49903 1.91603
lowerneck -13.3824 -4.56848 5.22149
upperneck -7.98292 -7.04655 1.45729
head -0.437394 -3.80989 -0.636688
rclavicle -4.77083e-015 -9.74045e-015
rhumerus 53.0503 2.13914 -24.9732
rradius 53.362
rwrist -32.2222
rhand 30.7615 -51.0108
rfingers 7.12502
rthumb 54.3902 -69.5815
lclavicle -4.77083e-015 -9.74045e-015
lhumerus 69.2791 -13.1659 25.2305
lradius 56.9096
lwrist 75.63
lhand -26.4052 13.9895
lfingers 7.12502
lthumb 0.154362 43.9692
rfemur -66.2646 7.72592 21.1026
rtibia -4.4071
rfoot 4.73766 2.0791
rtoes 16.7959
lfemur -89.506 25.8886 -70.9093
ltibia 4.6136
lfoot 14.0327 -34.1824
ltoes 26.7934
546
root -0.653103 17.1576 7.44581 65.9961 -16.4139 -6.68731
lowerback 23.8886 3.54339 4.56498
upperback 9.65209 5.43105 5.86004
thorax -2.79116 2.46782 2.35527
lowerneck -13.2249 -4.57987 5.25524
upperneck -7.7174 -7.0522 1.46694
head -0.378975 -3.80234 -0.640527
rclavicle -4.21423e-014 -5.82439e-014
rhumerus 53.379 1.94699 -25.6415
rradius 53.0861
rwrist -32.0231
rhand 30.9181 -50.7852
rfingers 7.12502
rthumb 54.5304 -69.2582
lclavicle -4.21423e-014 -5.82439e-014
lhumerus 69.6629 -13.0765 25.6106
lradius 56.5583
lwrist 75.504
lhand -26.418 14.0065
lfingers 7.12502
lthumb 0.141979 43.9862
rfemur -67.1867 7.26642 19.3502
rtibia -4.08166
rfoot 4.81548 2.30467
rtoes 16.762
lfemur -88.6388 25.4588 -72.686
ltibia 3.30381
lfoot 11.9764 -34.7082
ltoes 21.6804
